<svg xmlns="http://www.w3.org/2000/svg" xmlns:xlink="http://www.w3.org/1999/xlink" width="940" zoomAndPan="magnify" viewBox="0 0 705 591.000005" height="788" preserveAspectRatio="xMidYMid meet" version="1.0"><defs><g/><clipPath id="821a061a15"><path d="M 0.59375 0 L 704.402344 0 L 704.402344 590 L 0.59375 590 Z M 0.59375 0 " clip-rule="nonzero"/></clipPath><clipPath id="43f06b0f80"><path d="M 230.695312 135.25 L 474.035156 135.25 L 474.035156 334.414062 L 230.695312 334.414062 Z M 230.695312 135.25 " clip-rule="nonzero"/></clipPath><clipPath id="17cd5ee08d"><path d="M 271.40625 164.492188 L 433.882812 164.492188 L 433.882812 305.253906 L 271.40625 305.253906 Z M 271.40625 164.492188 " clip-rule="nonzero"/></clipPath></defs><g clip-path="url(#821a061a15)"><path fill="#ffffff" d="M 0.59375 0 L 704.40625 0 L 704.40625 590 L 0.59375 590 Z M 0.59375 0 " fill-opacity="1" fill-rule="nonzero"/><path fill="#ffffff" d="M 0.59375 0 L 704.40625 0 L 704.40625 590 L 0.59375 590 Z M 0.59375 0 " fill-opacity="1" fill-rule="nonzero"/></g><g fill="#003362" fill-opacity="1"><g transform="translate(139.121634, 411.255334)"><g><path d="M 37.234375 0 L 20.65625 0 C 14.988281 0 10.785156 -1.128906 8.046875 -3.390625 C 5.304688 -5.660156 3.9375 -9.148438 3.9375 -13.859375 L 3.9375 -35 C 3.9375 -39.707031 5.304688 -43.203125 8.046875 -45.484375 C 10.785156 -47.773438 14.988281 -48.921875 20.65625 -48.921875 L 37.234375 -48.921875 C 38.097656 -48.921875 38.722656 -48.726562 39.109375 -48.34375 C 39.492188 -47.957031 39.6875 -47.335938 39.6875 -46.484375 L 39.6875 -38.25 C 39.6875 -37.394531 39.492188 -36.773438 39.109375 -36.390625 C 38.722656 -36.003906 38.097656 -35.8125 37.234375 -35.8125 L 23.578125 -35.8125 C 22.171875 -35.8125 21.128906 -35.523438 20.453125 -34.953125 C 19.773438 -34.390625 19.4375 -33.539062 19.4375 -32.40625 L 19.4375 -16.234375 C 19.4375 -15.109375 19.773438 -14.285156 20.453125 -13.765625 C 21.128906 -13.242188 22.171875 -12.984375 23.578125 -12.984375 L 37.234375 -12.984375 C 38.097656 -12.984375 38.722656 -12.789062 39.109375 -12.40625 C 39.492188 -12.019531 39.6875 -11.394531 39.6875 -10.53125 L 39.6875 -2.453125 C 39.6875 -1.585938 39.492188 -0.960938 39.109375 -0.578125 C 38.722656 -0.191406 38.097656 0 37.234375 0 Z M 37.234375 0 "/></g></g></g><g fill="#003362" fill-opacity="1"><g transform="translate(182.132114, 411.255334)"><g><path d="M 46.140625 -12.84375 C 46.140625 -10.757812 45.832031 -8.867188 45.21875 -7.171875 C 44.613281 -5.472656 43.523438 -4.019531 41.953125 -2.8125 C 40.390625 -1.613281 38.238281 -0.675781 35.5 0 C 32.757812 0.675781 29.285156 1.015625 25.078125 1.015625 C 20.859375 1.015625 17.367188 0.675781 14.609375 0 C 11.847656 -0.675781 9.6875 -1.613281 8.125 -2.8125 C 6.5625 -4.019531 5.472656 -5.472656 4.859375 -7.171875 C 4.242188 -8.867188 3.9375 -10.757812 3.9375 -12.84375 L 3.9375 -36.015625 C 3.9375 -38.097656 4.242188 -39.988281 4.859375 -41.6875 C 5.472656 -43.382812 6.5625 -44.84375 8.125 -46.0625 C 9.6875 -47.289062 11.847656 -48.242188 14.609375 -48.921875 C 17.367188 -49.609375 20.859375 -49.953125 25.078125 -49.953125 C 29.285156 -49.953125 32.757812 -49.609375 35.5 -48.921875 C 38.238281 -48.242188 40.390625 -47.289062 41.953125 -46.0625 C 43.523438 -44.84375 44.613281 -43.382812 45.21875 -41.6875 C 45.832031 -39.988281 46.140625 -38.097656 46.140625 -36.015625 Z M 19.359375 -15.296875 C 19.359375 -14.390625 19.695312 -13.628906 20.375 -13.015625 C 21.0625 -12.398438 22.628906 -12.09375 25.078125 -12.09375 C 27.523438 -12.09375 29.085938 -12.398438 29.765625 -13.015625 C 30.441406 -13.628906 30.78125 -14.390625 30.78125 -15.296875 L 30.78125 -33.5625 C 30.78125 -34.425781 30.441406 -35.160156 29.765625 -35.765625 C 29.085938 -36.378906 27.523438 -36.6875 25.078125 -36.6875 C 22.628906 -36.6875 21.0625 -36.378906 20.375 -35.765625 C 19.695312 -35.160156 19.359375 -34.425781 19.359375 -33.5625 Z M 19.359375 -15.296875 "/></g></g></g><g fill="#003362" fill-opacity="1"><g transform="translate(232.548821, 411.255334)"><g><path d="M 17.328125 0 L 7.140625 0 C 6.273438 0 5.648438 -0.191406 5.265625 -0.578125 C 4.878906 -0.960938 4.6875 -1.585938 4.6875 -2.453125 L 4.6875 -46.484375 C 4.6875 -47.335938 4.878906 -47.957031 5.265625 -48.34375 C 5.648438 -48.726562 6.273438 -48.921875 7.140625 -48.921875 L 14.203125 -48.921875 C 15.066406 -48.921875 15.800781 -48.785156 16.40625 -48.515625 C 17.019531 -48.242188 17.625 -47.769531 18.21875 -47.09375 L 31.390625 -32 L 31.390625 -46.484375 C 31.390625 -47.335938 31.582031 -47.957031 31.96875 -48.34375 C 32.351562 -48.726562 32.976562 -48.921875 33.84375 -48.921875 L 44.03125 -48.921875 C 44.894531 -48.921875 45.519531 -48.726562 45.90625 -48.34375 C 46.289062 -47.957031 46.484375 -47.335938 46.484375 -46.484375 L 46.484375 -2.453125 C 46.484375 -1.585938 46.289062 -0.960938 45.90625 -0.578125 C 45.519531 -0.191406 44.894531 0 44.03125 0 L 33.84375 0 C 32.976562 0 32.351562 -0.191406 31.96875 -0.578125 C 31.582031 -0.960938 31.390625 -1.585938 31.390625 -2.453125 L 31.390625 -10.796875 L 19.78125 -24.875 L 19.78125 -2.453125 C 19.78125 -1.585938 19.585938 -0.960938 19.203125 -0.578125 C 18.816406 -0.191406 18.191406 0 17.328125 0 Z M 17.328125 0 "/></g></g></g><g fill="#003362" fill-opacity="1"><g transform="translate(284.052663, 411.255334)"><g><path d="M 42.0625 0 L 20.65625 0 C 14.988281 0 10.785156 -1.128906 8.046875 -3.390625 C 5.304688 -5.660156 3.9375 -9.148438 3.9375 -13.859375 L 3.9375 -35.0625 C 3.9375 -39.769531 5.304688 -43.253906 8.046875 -45.515625 C 10.785156 -47.785156 14.988281 -48.921875 20.65625 -48.921875 L 37.640625 -48.921875 C 38.503906 -48.921875 39.128906 -48.726562 39.515625 -48.34375 C 39.898438 -47.957031 40.09375 -47.335938 40.09375 -46.484375 L 40.09375 -38.25 C 40.09375 -37.394531 39.898438 -36.773438 39.515625 -36.390625 C 39.128906 -36.003906 38.503906 -35.8125 37.640625 -35.8125 L 23.515625 -35.8125 C 22.109375 -35.8125 21.0625 -35.523438 20.375 -34.953125 C 19.695312 -34.390625 19.359375 -33.539062 19.359375 -32.40625 L 19.359375 -16.171875 C 19.359375 -15.035156 19.617188 -14.195312 20.140625 -13.65625 C 20.660156 -13.113281 21.445312 -12.84375 22.5 -12.84375 L 29.078125 -12.84375 L 29.078125 -23.4375 C 29.078125 -24.300781 29.269531 -24.925781 29.65625 -25.3125 C 30.039062 -25.695312 30.664062 -25.890625 31.53125 -25.890625 L 42.0625 -25.890625 C 42.925781 -25.890625 43.550781 -25.695312 43.9375 -25.3125 C 44.320312 -24.925781 44.515625 -24.300781 44.515625 -23.4375 L 44.515625 -2.453125 C 44.515625 -1.585938 44.320312 -0.960938 43.9375 -0.578125 C 43.550781 -0.191406 42.925781 0 42.0625 0 Z M 42.0625 0 "/></g></g></g><g fill="#003362" fill-opacity="1"><g transform="translate(332.498915, 411.255334)"><g><path d="M 27.796875 0 L 16.78125 0 C 15.925781 0 15.304688 -0.191406 14.921875 -0.578125 C 14.535156 -0.960938 14.34375 -1.585938 14.34375 -2.453125 L 14.34375 -35.8125 L 4.34375 -35.8125 C 3.488281 -35.8125 2.867188 -36.003906 2.484375 -36.390625 C 2.097656 -36.773438 1.90625 -37.394531 1.90625 -38.25 L 1.90625 -46.484375 C 1.90625 -47.335938 2.097656 -47.957031 2.484375 -48.34375 C 2.867188 -48.726562 3.488281 -48.921875 4.34375 -48.921875 L 40.234375 -48.921875 C 41.085938 -48.921875 41.707031 -48.726562 42.09375 -48.34375 C 42.476562 -47.957031 42.671875 -47.335938 42.671875 -46.484375 L 42.671875 -38.25 C 42.671875 -37.394531 42.476562 -36.773438 42.09375 -36.390625 C 41.707031 -36.003906 41.085938 -35.8125 40.234375 -35.8125 L 30.234375 -35.8125 L 30.234375 -2.453125 C 30.234375 -1.585938 30.039062 -0.960938 29.65625 -0.578125 C 29.269531 -0.191406 28.648438 0 27.796875 0 Z M 27.796875 0 "/></g></g></g><g fill="#003362" fill-opacity="1"><g transform="translate(377.411929, 411.255334)"><g><path d="M 37.234375 0 L 20.65625 0 C 14.988281 0 10.785156 -1.128906 8.046875 -3.390625 C 5.304688 -5.660156 3.9375 -9.148438 3.9375 -13.859375 L 3.9375 -35 C 3.9375 -39.707031 5.304688 -43.203125 8.046875 -45.484375 C 10.785156 -47.773438 14.988281 -48.921875 20.65625 -48.921875 L 37.234375 -48.921875 C 38.097656 -48.921875 38.722656 -48.726562 39.109375 -48.34375 C 39.492188 -47.957031 39.6875 -47.335938 39.6875 -46.484375 L 39.6875 -38.25 C 39.6875 -37.394531 39.492188 -36.773438 39.109375 -36.390625 C 38.722656 -36.003906 38.097656 -35.8125 37.234375 -35.8125 L 23.578125 -35.8125 C 22.171875 -35.8125 21.128906 -35.523438 20.453125 -34.953125 C 19.773438 -34.390625 19.4375 -33.539062 19.4375 -32.40625 L 19.4375 -16.234375 C 19.4375 -15.109375 19.773438 -14.285156 20.453125 -13.765625 C 21.128906 -13.242188 22.171875 -12.984375 23.578125 -12.984375 L 37.234375 -12.984375 C 38.097656 -12.984375 38.722656 -12.789062 39.109375 -12.40625 C 39.492188 -12.019531 39.6875 -11.394531 39.6875 -10.53125 L 39.6875 -2.453125 C 39.6875 -1.585938 39.492188 -0.960938 39.109375 -0.578125 C 38.722656 -0.191406 38.097656 0 37.234375 0 Z M 37.234375 0 "/></g></g></g><g fill="#004aad" fill-opacity="1"><g transform="translate(420.444483, 411.255334)"><g><path d="M 30.03125 0 L 7.140625 0 C 6.273438 0 5.648438 -0.191406 5.265625 -0.578125 C 4.878906 -0.960938 4.6875 -1.585938 4.6875 -2.453125 L 4.6875 -46.484375 C 4.6875 -47.335938 4.878906 -47.957031 5.265625 -48.34375 C 5.648438 -48.726562 6.273438 -48.921875 7.140625 -48.921875 L 30.03125 -48.921875 C 35.695312 -48.921875 39.898438 -47.785156 42.640625 -45.515625 C 45.378906 -43.253906 46.75 -39.769531 46.75 -35.0625 L 46.75 -13.859375 C 46.75 -9.148438 45.378906 -5.660156 42.640625 -3.390625 C 39.898438 -1.128906 35.695312 0 30.03125 0 Z M 20.109375 -35.953125 L 20.109375 -12.84375 L 28.203125 -12.84375 C 29.285156 -12.84375 30.085938 -13.113281 30.609375 -13.65625 C 31.128906 -14.195312 31.390625 -15.035156 31.390625 -16.171875 L 31.390625 -32.6875 C 31.390625 -33.820312 31.128906 -34.648438 30.609375 -35.171875 C 30.085938 -35.691406 29.285156 -35.953125 28.203125 -35.953125 Z M 20.109375 -35.953125 "/></g></g></g><g fill="#004aad" fill-opacity="1"><g transform="translate(471.472715, 411.255334)"><g><path d="M 38.671875 0 L 7.140625 0 C 6.273438 0 5.648438 -0.191406 5.265625 -0.578125 C 4.878906 -0.960938 4.6875 -1.585938 4.6875 -2.453125 L 4.6875 -46.484375 C 4.6875 -47.335938 4.878906 -47.957031 5.265625 -48.34375 C 5.648438 -48.726562 6.273438 -48.921875 7.140625 -48.921875 L 38.671875 -48.921875 C 39.523438 -48.921875 40.144531 -48.726562 40.53125 -48.34375 C 40.914062 -47.957031 41.109375 -47.335938 41.109375 -46.484375 L 41.109375 -38.53125 C 41.109375 -37.664062 40.914062 -37.039062 40.53125 -36.65625 C 40.144531 -36.269531 39.523438 -36.078125 38.671875 -36.078125 L 19.90625 -36.078125 L 19.90625 -30.84375 L 33.15625 -30.84375 C 34.019531 -30.84375 34.644531 -30.648438 35.03125 -30.265625 C 35.414062 -29.890625 35.609375 -29.269531 35.609375 -28.40625 L 35.609375 -21.140625 C 35.609375 -20.273438 35.414062 -19.648438 35.03125 -19.265625 C 34.644531 -18.878906 34.019531 -18.6875 33.15625 -18.6875 L 19.90625 -18.6875 L 19.90625 -12.84375 L 38.671875 -12.84375 C 39.523438 -12.84375 40.144531 -12.648438 40.53125 -12.265625 C 40.914062 -11.878906 41.109375 -11.253906 41.109375 -10.390625 L 41.109375 -2.453125 C 41.109375 -1.585938 40.914062 -0.960938 40.53125 -0.578125 C 40.144531 -0.191406 39.523438 0 38.671875 0 Z M 38.671875 0 "/></g></g></g><g fill="#004aad" fill-opacity="1"><g transform="translate(516.249815, 411.255334)"><g><path d="M 33.640625 0 L 15.96875 0 C 15.101562 0 14.390625 -0.15625 13.828125 -0.46875 C 13.265625 -0.789062 12.820312 -1.382812 12.5 -2.25 L 5.84375 -18.890625 C 5.4375 -19.890625 5.097656 -20.757812 4.828125 -21.5 C 4.554688 -22.25 4.328125 -22.960938 4.140625 -23.640625 C 3.960938 -24.328125 3.835938 -25.039062 3.765625 -25.78125 C 3.703125 -26.53125 3.671875 -27.453125 3.671875 -28.546875 L 3.671875 -46.484375 C 3.671875 -47.335938 3.863281 -47.957031 4.25 -48.34375 C 4.632812 -48.726562 5.253906 -48.921875 6.109375 -48.921875 L 16.921875 -48.921875 C 17.785156 -48.921875 18.441406 -48.726562 18.890625 -48.34375 C 19.347656 -47.957031 19.578125 -47.335938 19.578125 -46.484375 L 19.578125 -27.71875 C 19.578125 -27.269531 19.617188 -26.816406 19.703125 -26.359375 C 19.796875 -25.910156 19.929688 -25.4375 20.109375 -24.9375 L 23.3125 -15.421875 C 23.445312 -14.972656 23.601562 -14.664062 23.78125 -14.5 C 23.96875 -14.34375 24.238281 -14.265625 24.59375 -14.265625 L 25.34375 -14.265625 C 25.707031 -14.265625 25.976562 -14.34375 26.15625 -14.5 C 26.34375 -14.664062 26.503906 -14.972656 26.640625 -15.421875 L 29.828125 -25 C 30.015625 -25.5 30.148438 -25.972656 30.234375 -26.421875 C 30.328125 -26.878906 30.375 -27.335938 30.375 -27.796875 L 30.375 -46.484375 C 30.375 -47.335938 30.566406 -47.957031 30.953125 -48.34375 C 31.335938 -48.726562 31.960938 -48.921875 32.828125 -48.921875 L 43.484375 -48.921875 C 44.347656 -48.921875 44.972656 -48.726562 45.359375 -48.34375 C 45.742188 -47.957031 45.9375 -47.335938 45.9375 -46.484375 L 45.9375 -28.546875 C 45.9375 -27.453125 45.898438 -26.53125 45.828125 -25.78125 C 45.765625 -25.039062 45.640625 -24.328125 45.453125 -23.640625 C 45.273438 -22.960938 45.050781 -22.25 44.78125 -21.5 C 44.507812 -20.757812 44.171875 -19.890625 43.765625 -18.890625 L 37.109375 -2.25 C 36.785156 -1.382812 36.335938 -0.789062 35.765625 -0.46875 C 35.203125 -0.15625 34.492188 0 33.640625 0 Z M 33.640625 0 "/></g></g></g><g fill="#004aad" fill-opacity="1"><g transform="translate(215.508167, 448.537426)"><g><path d="M 4.21875 0 L 2.171875 0 L 2.171875 -13.5 L 4.21875 -13.5 Z M 2 -17.15625 C 2 -17.625 2.113281 -17.96875 2.34375 -18.1875 C 2.570312 -18.40625 2.859375 -18.515625 3.203125 -18.515625 C 3.535156 -18.515625 3.816406 -18.40625 4.046875 -18.1875 C 4.285156 -17.96875 4.40625 -17.625 4.40625 -17.15625 C 4.40625 -16.695312 4.285156 -16.351562 4.046875 -16.125 C 3.816406 -15.90625 3.535156 -15.796875 3.203125 -15.796875 C 2.859375 -15.796875 2.570312 -15.90625 2.34375 -16.125 C 2.113281 -16.351562 2 -16.695312 2 -17.15625 Z M 2 -17.15625 "/></g></g></g><g fill="#004aad" fill-opacity="1"><g transform="translate(225.475565, 448.537426)"><g><path d="M 6.53125 -1.4375 C 6.894531 -1.4375 7.242188 -1.460938 7.578125 -1.515625 C 7.910156 -1.578125 8.175781 -1.632812 8.375 -1.6875 L 8.375 -0.125 C 8.15625 -0.0195312 7.828125 0.0664062 7.390625 0.140625 C 6.960938 0.210938 6.578125 0.25 6.234375 0.25 C 3.617188 0.25 2.3125 -1.125 2.3125 -3.875 L 2.3125 -11.921875 L 0.375 -11.921875 L 0.375 -12.90625 L 2.3125 -13.75 L 3.171875 -16.640625 L 4.359375 -16.640625 L 4.359375 -13.5 L 8.28125 -13.5 L 8.28125 -11.921875 L 4.359375 -11.921875 L 4.359375 -3.96875 C 4.359375 -3.15625 4.550781 -2.53125 4.9375 -2.09375 C 5.320312 -1.65625 5.851562 -1.4375 6.53125 -1.4375 Z M 6.53125 -1.4375 "/></g></g></g><g fill="#004aad" fill-opacity="1"><g transform="translate(237.968994, 448.537426)"><g/></g></g><g fill="#004aad" fill-opacity="1"><g transform="translate(248.108899, 448.537426)"><g><path d="M 13.203125 0 L 10.71875 -7.921875 C 10.5625 -8.410156 10.269531 -9.507812 9.84375 -11.21875 L 9.75 -11.21875 C 9.414062 -9.78125 9.128906 -8.671875 8.890625 -7.890625 L 6.328125 0 L 3.96875 0 L 0.28125 -13.5 L 2.421875 -13.5 C 3.296875 -10.113281 3.957031 -7.53125 4.40625 -5.75 C 4.863281 -3.976562 5.128906 -2.785156 5.203125 -2.171875 L 5.296875 -2.171875 C 5.390625 -2.640625 5.535156 -3.242188 5.734375 -3.984375 C 5.929688 -4.722656 6.109375 -5.3125 6.265625 -5.75 L 8.734375 -13.5 L 10.953125 -13.5 L 13.375 -5.75 C 13.832031 -4.34375 14.144531 -3.15625 14.3125 -2.1875 L 14.40625 -2.1875 C 14.4375 -2.488281 14.523438 -2.945312 14.671875 -3.5625 C 14.816406 -4.175781 15.671875 -7.488281 17.234375 -13.5 L 19.359375 -13.5 L 15.625 0 Z M 13.203125 0 "/></g></g></g><g fill="#004aad" fill-opacity="1"><g transform="translate(271.322507, 448.537426)"><g><path d="M 13.828125 -6.765625 C 13.828125 -4.566406 13.269531 -2.847656 12.15625 -1.609375 C 11.050781 -0.367188 9.519531 0.25 7.5625 0.25 C 6.351562 0.25 5.28125 -0.03125 4.34375 -0.59375 C 3.40625 -1.164062 2.679688 -1.984375 2.171875 -3.046875 C 1.671875 -4.109375 1.421875 -5.347656 1.421875 -6.765625 C 1.421875 -8.960938 1.96875 -10.675781 3.0625 -11.90625 C 4.164062 -13.132812 5.695312 -13.75 7.65625 -13.75 C 9.539062 -13.75 11.039062 -13.117188 12.15625 -11.859375 C 13.269531 -10.609375 13.828125 -8.910156 13.828125 -6.765625 Z M 3.53125 -6.765625 C 3.53125 -5.035156 3.875 -3.71875 4.5625 -2.8125 C 5.257812 -1.914062 6.273438 -1.46875 7.609375 -1.46875 C 8.953125 -1.46875 9.96875 -1.914062 10.65625 -2.8125 C 11.351562 -3.71875 11.703125 -5.035156 11.703125 -6.765625 C 11.703125 -8.484375 11.351562 -9.785156 10.65625 -10.671875 C 9.96875 -11.566406 8.945312 -12.015625 7.59375 -12.015625 C 6.25 -12.015625 5.234375 -11.570312 4.546875 -10.6875 C 3.867188 -9.8125 3.53125 -8.503906 3.53125 -6.765625 Z M 3.53125 -6.765625 "/></g></g></g><g fill="#004aad" fill-opacity="1"><g transform="translate(290.149467, 448.537426)"><g><path d="M 8.328125 -13.75 C 8.929688 -13.75 9.46875 -13.703125 9.9375 -13.609375 L 9.65625 -11.703125 C 9.101562 -11.828125 8.613281 -11.890625 8.1875 -11.890625 C 7.09375 -11.890625 6.15625 -11.445312 5.375 -10.5625 C 4.601562 -9.675781 4.21875 -8.570312 4.21875 -7.25 L 4.21875 0 L 2.171875 0 L 2.171875 -13.5 L 3.859375 -13.5 L 4.09375 -11 L 4.1875 -11 C 4.6875 -11.882812 5.289062 -12.5625 6 -13.03125 C 6.707031 -13.507812 7.484375 -13.75 8.328125 -13.75 Z M 8.328125 -13.75 "/></g></g></g><g fill="#004aad" fill-opacity="1"><g transform="translate(304.035276, 448.537426)"><g><path d="M 4.1875 -6.90625 C 4.539062 -7.40625 5.078125 -8.066406 5.796875 -8.890625 L 10.171875 -13.5 L 12.59375 -13.5 L 7.125 -7.75 L 12.96875 0 L 10.5 0 L 5.734375 -6.375 L 4.1875 -5.046875 L 4.1875 0 L 2.171875 0 L 2.171875 -19.171875 L 4.1875 -19.171875 L 4.1875 -9 C 4.1875 -8.550781 4.15625 -7.851562 4.09375 -6.90625 Z M 4.1875 -6.90625 "/></g></g></g><g fill="#004aad" fill-opacity="1"><g transform="translate(320.86606, 448.537426)"><g><path d="M 10.875 -3.6875 C 10.875 -2.425781 10.40625 -1.453125 9.46875 -0.765625 C 8.539062 -0.0859375 7.226562 0.25 5.53125 0.25 C 3.738281 0.25 2.34375 -0.0351562 1.34375 -0.609375 L 1.34375 -2.5 C 1.988281 -2.175781 2.679688 -1.914062 3.421875 -1.71875 C 4.171875 -1.53125 4.890625 -1.4375 5.578125 -1.4375 C 6.648438 -1.4375 7.472656 -1.609375 8.046875 -1.953125 C 8.617188 -2.296875 8.90625 -2.816406 8.90625 -3.515625 C 8.90625 -4.035156 8.675781 -4.484375 8.21875 -4.859375 C 7.769531 -5.234375 6.882812 -5.675781 5.5625 -6.1875 C 4.300781 -6.65625 3.40625 -7.0625 2.875 -7.40625 C 2.34375 -7.757812 1.945312 -8.15625 1.6875 -8.59375 C 1.4375 -9.039062 1.3125 -9.570312 1.3125 -10.1875 C 1.3125 -11.289062 1.753906 -12.160156 2.640625 -12.796875 C 3.535156 -13.429688 4.765625 -13.75 6.328125 -13.75 C 7.785156 -13.75 9.207031 -13.453125 10.59375 -12.859375 L 9.875 -11.203125 C 8.519531 -11.753906 7.289062 -12.03125 6.1875 -12.03125 C 5.21875 -12.03125 4.484375 -11.878906 3.984375 -11.578125 C 3.492188 -11.273438 3.25 -10.859375 3.25 -10.328125 C 3.25 -9.960938 3.34375 -9.648438 3.53125 -9.390625 C 3.71875 -9.140625 4.015625 -8.898438 4.421875 -8.671875 C 4.835938 -8.441406 5.628906 -8.109375 6.796875 -7.671875 C 8.390625 -7.085938 9.46875 -6.5 10.03125 -5.90625 C 10.59375 -5.320312 10.875 -4.582031 10.875 -3.6875 Z M 10.875 -3.6875 "/></g></g></g><g fill="#004aad" fill-opacity="1"><g transform="translate(336.489288, 448.537426)"><g/></g></g><g fill="#004aad" fill-opacity="1"><g transform="translate(346.629197, 448.537426)"><g><path d="M 8.453125 -13.71875 C 10.222656 -13.71875 11.597656 -13.113281 12.578125 -11.90625 C 13.566406 -10.695312 14.0625 -8.984375 14.0625 -6.765625 C 14.0625 -4.546875 13.566406 -2.820312 12.578125 -1.59375 C 11.585938 -0.363281 10.210938 0.25 8.453125 0.25 C 7.578125 0.25 6.773438 0.0859375 6.046875 -0.234375 C 5.316406 -0.566406 4.707031 -1.066406 4.21875 -1.734375 L 4.0625 -1.734375 L 3.640625 0 L 2.171875 0 L 2.171875 -19.171875 L 4.21875 -19.171875 L 4.21875 -14.515625 C 4.21875 -13.472656 4.179688 -12.535156 4.109375 -11.703125 L 4.21875 -11.703125 C 5.164062 -13.046875 6.578125 -13.71875 8.453125 -13.71875 Z M 8.15625 -12.015625 C 6.757812 -12.015625 5.753906 -11.613281 5.140625 -10.8125 C 4.523438 -10.007812 4.21875 -8.660156 4.21875 -6.765625 C 4.21875 -4.867188 4.53125 -3.507812 5.15625 -2.6875 C 5.789062 -1.875 6.804688 -1.46875 8.203125 -1.46875 C 9.460938 -1.46875 10.398438 -1.925781 11.015625 -2.84375 C 11.628906 -3.757812 11.9375 -5.078125 11.9375 -6.796875 C 11.9375 -8.546875 11.628906 -9.851562 11.015625 -10.71875 C 10.398438 -11.582031 9.445312 -12.015625 8.15625 -12.015625 Z M 8.15625 -12.015625 "/></g></g></g><g fill="#004aad" fill-opacity="1"><g transform="translate(365.677954, 448.537426)"><g><path d="M 4.09375 -13.5 L 4.09375 -4.75 C 4.09375 -3.644531 4.34375 -2.820312 4.84375 -2.28125 C 5.34375 -1.738281 6.128906 -1.46875 7.203125 -1.46875 C 8.609375 -1.46875 9.640625 -1.851562 10.296875 -2.625 C 10.953125 -3.394531 11.28125 -4.65625 11.28125 -6.40625 L 11.28125 -13.5 L 13.3125 -13.5 L 13.3125 0 L 11.625 0 L 11.328125 -1.8125 L 11.21875 -1.8125 C 10.800781 -1.144531 10.21875 -0.632812 9.46875 -0.28125 C 8.726562 0.0703125 7.882812 0.25 6.9375 0.25 C 5.289062 0.25 4.054688 -0.140625 3.234375 -0.921875 C 2.421875 -1.703125 2.015625 -2.953125 2.015625 -4.671875 L 2.015625 -13.5 Z M 4.09375 -13.5 "/></g></g></g><g fill="#004aad" fill-opacity="1"><g transform="translate(384.751355, 448.537426)"><g><path d="M 6.53125 -1.4375 C 6.894531 -1.4375 7.242188 -1.460938 7.578125 -1.515625 C 7.910156 -1.578125 8.175781 -1.632812 8.375 -1.6875 L 8.375 -0.125 C 8.15625 -0.0195312 7.828125 0.0664062 7.390625 0.140625 C 6.960938 0.210938 6.578125 0.25 6.234375 0.25 C 3.617188 0.25 2.3125 -1.125 2.3125 -3.875 L 2.3125 -11.921875 L 0.375 -11.921875 L 0.375 -12.90625 L 2.3125 -13.75 L 3.171875 -16.640625 L 4.359375 -16.640625 L 4.359375 -13.5 L 8.28125 -13.5 L 8.28125 -11.921875 L 4.359375 -11.921875 L 4.359375 -3.96875 C 4.359375 -3.15625 4.550781 -2.53125 4.9375 -2.09375 C 5.320312 -1.65625 5.851562 -1.4375 6.53125 -1.4375 Z M 6.53125 -1.4375 "/></g></g></g><g fill="#004aad" fill-opacity="1"><g transform="translate(397.244784, 448.537426)"><g/></g></g><g fill="#004aad" fill-opacity="1"><g transform="translate(407.384693, 448.537426)"><g><path d="M 11.40625 0 L 11.40625 -8.734375 C 11.40625 -9.835938 11.15625 -10.660156 10.65625 -11.203125 C 10.15625 -11.742188 9.367188 -12.015625 8.296875 -12.015625 C 6.878906 -12.015625 5.84375 -11.628906 5.1875 -10.859375 C 4.539062 -10.085938 4.21875 -8.820312 4.21875 -7.0625 L 4.21875 0 L 2.171875 0 L 2.171875 -19.171875 L 4.21875 -19.171875 L 4.21875 -13.375 C 4.21875 -12.675781 4.179688 -12.09375 4.109375 -11.625 L 4.234375 -11.625 C 4.640625 -12.28125 5.210938 -12.789062 5.953125 -13.15625 C 6.703125 -13.53125 7.550781 -13.71875 8.5 -13.71875 C 10.15625 -13.71875 11.394531 -13.328125 12.21875 -12.546875 C 13.039062 -11.765625 13.453125 -10.519531 13.453125 -8.8125 L 13.453125 0 Z M 11.40625 0 "/></g></g></g><g fill="#004aad" fill-opacity="1"><g transform="translate(426.458082, 448.537426)"><g><path d="M 13.828125 -6.765625 C 13.828125 -4.566406 13.269531 -2.847656 12.15625 -1.609375 C 11.050781 -0.367188 9.519531 0.25 7.5625 0.25 C 6.351562 0.25 5.28125 -0.03125 4.34375 -0.59375 C 3.40625 -1.164062 2.679688 -1.984375 2.171875 -3.046875 C 1.671875 -4.109375 1.421875 -5.347656 1.421875 -6.765625 C 1.421875 -8.960938 1.96875 -10.675781 3.0625 -11.90625 C 4.164062 -13.132812 5.695312 -13.75 7.65625 -13.75 C 9.539062 -13.75 11.039062 -13.117188 12.15625 -11.859375 C 13.269531 -10.609375 13.828125 -8.910156 13.828125 -6.765625 Z M 3.53125 -6.765625 C 3.53125 -5.035156 3.875 -3.71875 4.5625 -2.8125 C 5.257812 -1.914062 6.273438 -1.46875 7.609375 -1.46875 C 8.953125 -1.46875 9.96875 -1.914062 10.65625 -2.8125 C 11.351562 -3.71875 11.703125 -5.035156 11.703125 -6.765625 C 11.703125 -8.484375 11.351562 -9.785156 10.65625 -10.671875 C 9.96875 -11.566406 8.945312 -12.015625 7.59375 -12.015625 C 6.25 -12.015625 5.234375 -11.570312 4.546875 -10.6875 C 3.867188 -9.8125 3.53125 -8.503906 3.53125 -6.765625 Z M 3.53125 -6.765625 "/></g></g></g><g fill="#004aad" fill-opacity="1"><g transform="translate(445.285031, 448.537426)"><g><path d="M 13.203125 0 L 10.71875 -7.921875 C 10.5625 -8.410156 10.269531 -9.507812 9.84375 -11.21875 L 9.75 -11.21875 C 9.414062 -9.78125 9.128906 -8.671875 8.890625 -7.890625 L 6.328125 0 L 3.96875 0 L 0.28125 -13.5 L 2.421875 -13.5 C 3.296875 -10.113281 3.957031 -7.53125 4.40625 -5.75 C 4.863281 -3.976562 5.128906 -2.785156 5.203125 -2.171875 L 5.296875 -2.171875 C 5.390625 -2.640625 5.535156 -3.242188 5.734375 -3.984375 C 5.929688 -4.722656 6.109375 -5.3125 6.265625 -5.75 L 8.734375 -13.5 L 10.953125 -13.5 L 13.375 -5.75 C 13.832031 -4.34375 14.144531 -3.15625 14.3125 -2.1875 L 14.40625 -2.1875 C 14.4375 -2.488281 14.523438 -2.945312 14.671875 -3.5625 C 14.816406 -4.175781 15.671875 -7.488281 17.234375 -13.5 L 19.359375 -13.5 L 15.625 0 Z M 13.203125 0 "/></g></g></g><g fill="#004aad" fill-opacity="1"><g transform="translate(468.498628, 448.537426)"><g/></g></g><g fill="#004aad" fill-opacity="1"><g transform="translate(478.638525, 448.537426)"><g><path d="M 3.5625 -4.96875 L 3.5625 -5.625 C 3.5625 -6.59375 3.707031 -7.382812 4 -8 C 4.300781 -8.625 4.851562 -9.28125 5.65625 -9.96875 C 6.769531 -10.914062 7.472656 -11.625 7.765625 -12.09375 C 8.054688 -12.570312 8.203125 -13.148438 8.203125 -13.828125 C 8.203125 -14.660156 7.929688 -15.304688 7.390625 -15.765625 C 6.859375 -16.222656 6.085938 -16.453125 5.078125 -16.453125 C 4.429688 -16.453125 3.796875 -16.375 3.171875 -16.21875 C 2.554688 -16.070312 1.851562 -15.796875 1.0625 -15.390625 L 0.328125 -17.046875 C 1.878906 -17.859375 3.503906 -18.265625 5.203125 -18.265625 C 6.765625 -18.265625 7.984375 -17.878906 8.859375 -17.109375 C 9.734375 -16.335938 10.171875 -15.25 10.171875 -13.84375 C 10.171875 -13.25 10.085938 -12.722656 9.921875 -12.265625 C 9.765625 -11.804688 9.53125 -11.375 9.21875 -10.96875 C 8.90625 -10.5625 8.234375 -9.90625 7.203125 -9 C 6.367188 -8.300781 5.816406 -7.71875 5.546875 -7.25 C 5.285156 -6.78125 5.15625 -6.15625 5.15625 -5.375 L 5.15625 -4.96875 Z M 2.953125 -1.3125 C 2.953125 -2.425781 3.445312 -2.984375 4.4375 -2.984375 C 4.914062 -2.984375 5.28125 -2.835938 5.53125 -2.546875 C 5.789062 -2.265625 5.921875 -1.851562 5.921875 -1.3125 C 5.921875 -0.78125 5.789062 -0.367188 5.53125 -0.078125 C 5.269531 0.210938 4.90625 0.359375 4.4375 0.359375 C 4.007812 0.359375 3.65625 0.226562 3.375 -0.03125 C 3.09375 -0.289062 2.953125 -0.71875 2.953125 -1.3125 Z M 2.953125 -1.3125 "/></g></g></g><g clip-path="url(#43f06b0f80)"><path fill="#003362" d="M 274.988281 247.972656 L 274.988281 292.265625 L 352.5 334.566406 L 430.011719 292.265625 L 430.011719 247.972656 L 352.5 290.273438 Z M 352.5 135.25 L 230.695312 201.6875 L 352.5 268.128906 L 452.15625 213.757812 L 452.15625 290.273438 L 474.304688 290.273438 L 474.304688 201.6875 Z M 352.5 135.25 " fill-opacity="1" fill-rule="nonzero"/></g><g clip-path="url(#17cd5ee08d)"><path fill="#003362" d="M 271.40625 234.878906 L 311.9375 305.125 L 393.058594 305.125 L 433.589844 234.878906 L 393.058594 164.6875 L 311.9375 164.6875 Z M 407.214844 234.878906 L 379.871094 282.304688 L 325.125 282.304688 L 297.78125 234.878906 L 325.125 187.457031 L 341.113281 187.457031 L 341.113281 210.171875 L 338.261719 210.171875 L 323.996094 234.878906 L 338.261719 259.585938 L 366.789062 259.585938 L 381.054688 234.878906 L 366.789062 210.171875 L 363.9375 210.171875 L 363.9375 187.457031 L 379.921875 187.457031 Z M 407.214844 234.878906 " fill-opacity="1" fill-rule="nonzero"/></g></svg>